<mxfile host="app.diagrams.net" modified="2022-03-02T12:46:35.703Z" agent="5.0 (Windows NT 10.0; Win64; x64) AppleWebKit/537.36 (KHTML, like Gecko) Chrome/97.0.4692.99 Safari/537.36" etag="mDQep68saNZfgJlGK-xk" version="16.6.4" type="github">
  <diagram id="eR2_tiiAA7VqeFrTGmMe" name="Page-1">
    <mxGraphModel dx="1117" dy="611" grid="1" gridSize="10" guides="1" tooltips="1" connect="1" arrows="1" fold="1" page="1" pageScale="1" pageWidth="827" pageHeight="1169" math="0" shadow="0">
      <root>
        <mxCell id="0" />
        <mxCell id="1" parent="0" />
        <mxCell id="Gt-y95JVdamE7XEXDWf4-1" value="&lt;span style=&quot;color: rgb(38 , 127 , 153) ; background-color: rgb(255 , 255 , 255) ; font-family: &amp;#34;consolas&amp;#34; , &amp;#34;courier new&amp;#34; , monospace ; font-size: 14px&quot;&gt;AFGRL_ModelTrainer&lt;/span&gt;" style="rounded=0;whiteSpace=wrap;html=1;" vertex="1" parent="1">
          <mxGeometry x="248" y="365" width="120" height="60" as="geometry" />
        </mxCell>
        <mxCell id="Gt-y95JVdamE7XEXDWf4-2" value="args" style="rounded=0;whiteSpace=wrap;html=1;" vertex="1" parent="1">
          <mxGeometry x="438" y="330" width="120" height="60" as="geometry" />
        </mxCell>
        <mxCell id="Gt-y95JVdamE7XEXDWf4-3" value="DataLoader" style="rounded=0;whiteSpace=wrap;html=1;" vertex="1" parent="1">
          <mxGeometry x="438" y="400" width="120" height="60" as="geometry" />
        </mxCell>
        <mxCell id="Gt-y95JVdamE7XEXDWf4-4" value="AFGRL" style="rounded=0;whiteSpace=wrap;html=1;" vertex="1" parent="1">
          <mxGeometry x="438" y="470" width="120" height="60" as="geometry" />
        </mxCell>
        <mxCell id="Gt-y95JVdamE7XEXDWf4-5" value="AdamW" style="rounded=0;whiteSpace=wrap;html=1;" vertex="1" parent="1">
          <mxGeometry x="648" y="535" width="120" height="60" as="geometry" />
        </mxCell>
        <mxCell id="Gt-y95JVdamE7XEXDWf4-6" value="Neighbor" style="rounded=0;whiteSpace=wrap;html=1;" vertex="1" parent="1">
          <mxGeometry x="648" y="465" width="120" height="60" as="geometry" />
        </mxCell>
        <mxCell id="Gt-y95JVdamE7XEXDWf4-7" value="Encoder" style="rounded=0;whiteSpace=wrap;html=1;" vertex="1" parent="1">
          <mxGeometry x="648" y="395" width="120" height="60" as="geometry" />
        </mxCell>
        <mxCell id="Gt-y95JVdamE7XEXDWf4-10" style="edgeStyle=orthogonalEdgeStyle;rounded=0;orthogonalLoop=1;jettySize=auto;html=1;entryX=0;entryY=0.5;entryDx=0;entryDy=0;" edge="1" parent="1" source="Gt-y95JVdamE7XEXDWf4-8" target="Gt-y95JVdamE7XEXDWf4-1">
          <mxGeometry relative="1" as="geometry" />
        </mxCell>
        <mxCell id="Gt-y95JVdamE7XEXDWf4-8" value="&lt;div style=&quot;background-color: rgb(255 , 255 , 255) ; font-family: &amp;#34;consolas&amp;#34; , &amp;#34;courier new&amp;#34; , monospace ; font-size: 14px ; line-height: 19px&quot;&gt;&lt;span style=&quot;color: #267f99&quot;&gt;embedder&lt;/span&gt;&lt;/div&gt;" style="rounded=0;whiteSpace=wrap;html=1;" vertex="1" parent="1">
          <mxGeometry x="58" y="365" width="120" height="60" as="geometry" />
        </mxCell>
        <mxCell id="Gt-y95JVdamE7XEXDWf4-11" value="继承" style="text;html=1;align=center;verticalAlign=middle;resizable=0;points=[];autosize=1;strokeColor=none;fillColor=none;" vertex="1" parent="1">
          <mxGeometry x="188" y="370" width="40" height="20" as="geometry" />
        </mxCell>
        <mxCell id="Gt-y95JVdamE7XEXDWf4-12" value="定义了一些基本的分析操作，并不包含神经网络的内容" style="text;html=1;strokeColor=none;fillColor=none;align=center;verticalAlign=middle;whiteSpace=wrap;rounded=0;" vertex="1" parent="1">
          <mxGeometry x="58" y="439" width="120" height="51" as="geometry" />
        </mxCell>
        <mxCell id="Gt-y95JVdamE7XEXDWf4-14" value="&lt;h1&gt;神经网络部分&lt;/h1&gt;&lt;p&gt;都包含一个前馈函数forward，且都是从torch.nn.Module继承过来的。&lt;/p&gt;" style="text;html=1;strokeColor=none;fillColor=none;spacing=5;spacingTop=-20;whiteSpace=wrap;overflow=hidden;rounded=0;" vertex="1" parent="1">
          <mxGeometry x="620" y="250" width="190" height="120" as="geometry" />
        </mxCell>
      </root>
    </mxGraphModel>
  </diagram>
</mxfile>
